# xmcd CD database file
#
# Track frame offsets:
#	150
#	15287
#	33232
#	53785
#	65722
#	95002
#	110157
#	125045
#	139062
#	158440
#	181710
#	197925
#	212815
#	242290
#	255350
#
# Disc length: 3699 seconds
#
# Revision: 2
# Processed by: cddbd v1.4PL0 Copyright (c) Steve Scherf et al.
# Submitted via: CDex 1.40Release
#
DISCID=c90e710f
DTITLE=Katie Webster - Deluxe Edition
DYEAR=1999
DGENRE=Blues
TTITLE0=Two-Fisted Mama
TTITLE1=Who's Making Love
TTITLE2=I'm Bad
TTITLE3=C.Q. Boogie
TTITLE4=It's Mighty Hard
TTITLE5=Love Deluxe
TTITLE6=Sea Of Love
TTITLE7=A Little Meat On The Side
TTITLE8=Try Little Tenderness
TTITLE9=Never Let Me Go
TTITLE10=I'm Still Leaving You
TTITLE11=Whoo-Wee Sweet Daddy
TTITLE12=On The Run
TTITLE13=Hallelujah, I Just Love Him So
TTITLE14=The Love You Save May Be Your Own
EXTD=YEAR: 1999 ID3G: 0
EXTT0=
EXTT1=
EXTT2=
EXTT3=
EXTT4=
EXTT5=
EXTT6=
EXTT7=
EXTT8=
EXTT9=
EXTT10=
EXTT11=
EXTT12=
EXTT13=
EXTT14=
PLAYORDER=
